<svg width="156" height="46" viewBox="0 0 156 46" fill="none" xmlns="http://www.w3.org/2000/svg">
<g clip-path="url(#clip0_114_696)">
<path fill-rule="evenodd" clip-rule="evenodd" d="M150.227 45.9832H6.57938C3.39778 45.9832 0.806641 43.3916 0.806641 40.2353V5.7479C0.806641 2.5801 3.39778 0 6.57938 0H150.227C153.406 0 156 2.5801 156 5.7479V40.2353C156 43.3916 153.406 45.9832 150.227 45.9832Z" fill="black"/>
<path fill-rule="evenodd" clip-rule="evenodd" d="M150.227 0.920237C152.896 0.920237 155.08 3.09039 155.08 5.7479V40.2353C155.08 42.8928 152.91 45.063 150.227 45.063H6.57938C3.91085 45.063 1.72672 42.8928 1.72672 40.2353V5.7479C1.72672 3.09039 3.89652 0.920237 6.57938 0.920237H150.227ZM150.227 0H6.57938C3.39778 0 0.806641 2.59157 0.806641 5.7479V40.2353C0.806641 43.4031 3.39778 45.9832 6.57938 45.9832H150.227C153.406 45.9832 156 43.4031 156 40.2353V5.7479C156 2.59157 153.406 0 150.227 0Z" fill="#A6A6A6"/>
<path d="M68.9426 27.7519C66.5906 27.7519 64.6736 29.5399 64.6736 32.0049C64.6736 34.4539 66.5906 36.2579 68.9426 36.2579C71.2946 36.2579 73.2116 34.4539 73.2116 32.0049C73.2116 29.5399 71.2946 27.7519 68.9426 27.7519ZM68.9426 34.5829C67.6536 34.5829 66.5416 33.5199 66.5416 32.0049C66.5416 30.4739 67.6536 29.4269 68.9426 29.4269C70.2316 29.4269 71.3426 30.4739 71.3426 32.0049C71.3426 33.5189 70.2316 34.5829 68.9426 34.5829ZM59.6286 27.7519C57.2766 27.7519 55.3596 29.5399 55.3596 32.0049C55.3596 34.4539 57.2766 36.2579 59.6286 36.2579C61.9806 36.2579 63.8976 34.4539 63.8976 32.0049C63.8986 29.5399 61.9806 27.7519 59.6286 27.7519ZM59.6286 34.5829C58.3396 34.5829 57.2286 33.5199 57.2286 32.0049C57.2286 30.4739 58.3406 29.4269 59.6286 29.4269C60.9176 29.4269 62.0286 30.4739 62.0286 32.0049C62.0296 33.5189 60.9176 34.5829 59.6286 34.5829ZM48.5506 29.0569V30.8609H52.8686C52.7396 31.8759 52.4016 32.6169 51.8856 33.1329C51.2576 33.7609 50.2746 34.4539 48.5506 34.4539C45.8926 34.4539 43.8146 32.3109 43.8146 29.6529C43.8146 26.9949 45.8926 24.8519 48.5506 24.8519C49.9846 24.8519 51.0316 25.4159 51.8046 26.1409L53.0776 24.8679C51.9986 23.8369 50.5646 23.0469 48.5506 23.0469C44.9096 23.0469 41.8486 26.0109 41.8486 29.6519C41.8486 33.2929 44.9096 36.2569 48.5506 36.2569C50.5156 36.2569 51.9986 35.6129 53.1586 34.4039C54.3506 33.2119 54.7216 31.5359 54.7216 30.1829C54.7216 29.7639 54.6896 29.3769 54.6246 29.0549H48.5506V29.0569ZM93.8586 30.4579C93.5046 29.5069 92.4246 27.7509 90.2176 27.7509C88.0266 27.7509 86.2066 29.4749 86.2066 32.0039C86.2066 34.3879 88.0106 36.2569 90.4276 36.2569C92.3766 36.2569 93.5046 35.0649 93.9716 34.3719L92.5216 33.4049C92.0386 34.1139 91.3776 34.5809 90.4276 34.5809C89.4766 34.5809 88.8006 34.1459 88.3656 33.2919L94.0526 30.9399L93.8586 30.4579ZM88.0586 31.8759C88.0106 30.2329 89.3316 29.3949 90.2816 29.3949C91.0226 29.3949 91.6506 29.7649 91.8606 30.2969L88.0586 31.8759ZM83.4346 35.9999H85.3036V23.4989H83.4346V35.9999ZM80.3736 28.7019H80.3096C79.8906 28.2029 79.0856 27.7509 78.0706 27.7509C75.9436 27.7509 73.9946 29.6199 73.9946 32.0199C73.9946 34.4039 75.9436 36.2569 78.0706 36.2569C79.0856 36.2569 79.8906 35.8059 80.3096 35.2899H80.3736V35.9019C80.3736 37.5289 79.5036 38.3989 78.1016 38.3989C76.9576 38.3989 76.2486 37.5769 75.9586 36.8849L74.3316 37.5619C74.7986 38.6899 76.0396 40.0749 78.1016 40.0749C80.2926 40.0749 82.1456 38.7859 82.1456 35.6449V28.0089H80.3736V28.7019ZM78.2316 34.5829C76.9426 34.5829 75.8636 33.5039 75.8636 32.0209C75.8636 30.5229 76.9426 29.4269 78.2316 29.4269C79.5046 29.4269 80.5026 30.5219 80.5026 32.0209C80.5026 33.5029 79.5046 34.5829 78.2316 34.5829ZM102.613 23.4989H98.1416V35.9999H100.007V31.2639H102.612C104.68 31.2639 106.713 29.7669 106.713 27.3819C106.713 24.9969 104.681 23.4989 102.613 23.4989ZM102.661 29.5239H100.007V25.2389H102.661C104.056 25.2389 104.848 26.3939 104.848 27.3819C104.848 28.3499 104.056 29.5239 102.661 29.5239ZM114.193 27.7289C112.842 27.7289 111.443 28.3239 110.864 29.6429L112.521 30.3349C112.875 29.6429 113.534 29.4179 114.226 29.4179C115.191 29.4179 116.172 29.9969 116.188 31.0259V31.1549C115.85 30.9619 115.126 30.6719 114.242 30.6719C112.457 30.6719 110.639 31.6529 110.639 33.4869C110.639 35.1599 112.103 36.2369 113.743 36.2369C114.998 36.2369 115.689 35.6739 116.123 35.0149H116.187V35.9799H117.988V31.1869C117.988 28.9669 116.332 27.7289 114.193 27.7289ZM113.967 34.5799C113.356 34.5799 112.503 34.2739 112.503 33.5189C112.503 32.5539 113.565 32.1839 114.481 32.1839C115.301 32.1839 115.687 32.3609 116.186 32.6019C116.042 33.7599 115.045 34.5799 113.967 34.5799ZM124.55 28.0019L122.411 33.4219H122.347L120.128 28.0019H118.118L121.447 35.5769L119.549 39.7909H121.495L126.626 28.0019H124.55ZM107.743 35.9999H109.609V23.4989H107.743V35.9999Z" fill="white"/>
<path d="M21.524 19.4243L10.877 30.7243C10.878 30.7263 10.878 30.7283 10.879 30.7303C11.205 31.9583 12.326 32.8613 13.656 32.8613C14.188 32.8613 14.687 32.7173 15.115 32.4653L15.149 32.4453L27.133 25.5303L21.524 19.4243Z" fill="#EB4335"/>
<path d="M32.2947 17.5002L32.2847 17.4932L27.1107 14.4932L21.2817 19.6802L27.1307 25.5282L32.2777 22.5592C33.1797 22.0722 33.7917 21.1212 33.7917 20.0242C33.7917 18.9352 33.1877 17.9882 32.2947 17.5002Z" fill="#FABC13"/>
<path d="M10.8768 9.27734C10.8128 9.51334 10.7788 9.76034 10.7788 10.0173V29.9843C10.7788 30.2413 10.8118 30.4893 10.8768 30.7243L21.8898 19.7133L10.8768 9.27734Z" fill="#547DBF"/>
<path d="M21.602 20.0001L27.113 14.4911L15.142 7.55114C14.707 7.29014 14.2 7.14014 13.656 7.14014C12.326 7.14014 11.204 8.04514 10.877 9.27414V9.27714L21.602 20.0001Z" fill="#30A851"/>
<path d="M55.268 11.2556H51.925V12.0844H54.43C54.3621 12.7581 54.092 13.288 53.6402 13.6732C53.1873 14.0583 52.609 14.2514 51.925 14.2514C51.1732 14.2514 50.5375 13.9916 50.0179 13.4708C49.5075 12.9409 49.2465 12.2868 49.2465 11.4958C49.2465 10.7061 49.5075 10.0508 50.0179 9.52087C50.5375 9.00126 51.1732 8.74146 51.925 8.74146C52.3101 8.74146 52.6769 8.80813 53.0137 8.95298C53.3505 9.09783 53.6207 9.30015 53.8322 9.55996L54.4679 8.92424C54.1794 8.59661 53.8126 8.346 53.3609 8.16322C52.9079 7.98043 52.4354 7.89307 51.925 7.89307C50.9226 7.89307 50.0754 8.24024 49.3822 8.93344C48.6878 9.62778 48.3418 10.4842 48.3418 11.4958C48.3418 12.5075 48.6878 13.3651 49.3822 14.0583C50.0754 14.7526 50.9226 15.0986 51.925 15.0986C52.9746 15.0986 53.8126 14.7618 54.4587 14.0778C55.0266 13.5099 55.3163 12.7385 55.3163 11.7752C55.3163 11.612 55.2968 11.4384 55.268 11.2556Z" fill="white"/>
<path d="M56.5878 8.04711V14.9446H60.6148V14.0974H57.4741V11.9109H60.3055V11.082H57.4741V8.8955H60.6148V8.04711H56.5878Z" fill="white"/>
<path d="M66.2775 8.8955V8.04711H61.5378V8.8955H63.4645V14.9446H64.3508V8.8955H66.2775Z" fill="white"/>
<path d="M70.5941 8.04711H69.7078V14.9446H70.5941V8.04711Z" fill="white"/>
<path d="M76.4513 8.8955V8.04711H71.7116V8.8955H73.6383V14.9446H74.5246V8.8955H76.4513Z" fill="white"/>
<path d="M85.4203 8.94378C84.7363 8.24024 83.8983 7.89307 82.8959 7.89307C81.8946 7.89307 81.0554 8.24024 80.3714 8.93344C79.6874 9.61744 79.3506 10.475 79.3506 11.4958C79.3506 12.5178 79.6874 13.3743 80.3714 14.0583C81.0554 14.7526 81.8946 15.0986 82.8959 15.0986C83.8879 15.0986 84.7363 14.7526 85.4203 14.0583C86.1043 13.3743 86.4412 12.5178 86.4412 11.4958C86.4412 10.4842 86.1043 9.62778 85.4203 8.94378ZM81.0083 9.52087C81.5187 9.00126 82.144 8.74146 82.8959 8.74146C83.6477 8.74146 84.2731 9.00126 84.7743 9.52087C85.2847 10.0324 85.5353 10.6969 85.5353 11.4958C85.5353 12.296 85.2847 12.9604 84.7743 13.4708C84.2731 13.9916 83.6477 14.2514 82.8959 14.2514C82.144 14.2514 81.5187 13.9916 81.0083 13.4708C80.507 12.9512 80.2564 12.296 80.2564 11.4958C80.2564 10.6969 80.507 10.0416 81.0083 9.52087Z" fill="white"/>
<path d="M88.5702 10.6486L88.5322 9.31855H88.5702L92.0776 14.9446H93.0018V8.04711H92.1155V12.0844L92.1546 13.4134H92.1155L88.7633 8.04711H87.685V14.9446H88.5702V10.6486Z" fill="white"/>
</g>
<defs>
<clipPath id="clip0_114_696">
<rect width="155.193" height="45.9832" fill="white" transform="translate(0.806641)"/>
</clipPath>
</defs>
</svg>
